<mxfile host="app.diagrams.net" modified="2021-05-06T05:45:53.193Z" agent="5.0 (Windows NT 10.0; Win64; x64) AppleWebKit/537.36 (KHTML, like Gecko) Chrome/88.0.4324.182 Safari/537.36" etag="CsVbKkyc3WdEHDWFNnzk" version="14.6.10" type="github">
  <diagram id="P3Lriu87AIvHMJ89ZmvR" name="第 1 页">
    <mxGraphModel dx="1422" dy="706" grid="1" gridSize="10" guides="1" tooltips="1" connect="1" arrows="1" fold="1" page="1" pageScale="1" pageWidth="827" pageHeight="1169" math="0" shadow="0">
      <root>
        <mxCell id="0" />
        <mxCell id="1" parent="0" />
        <mxCell id="WBhutPJwO7vAAjTEZFb8-5" style="edgeStyle=orthogonalEdgeStyle;rounded=0;orthogonalLoop=1;jettySize=auto;html=1;exitX=0.5;exitY=1;exitDx=0;exitDy=0;exitPerimeter=0;entryX=0.5;entryY=0;entryDx=0;entryDy=0;" parent="1" source="WBhutPJwO7vAAjTEZFb8-1" target="WBhutPJwO7vAAjTEZFb8-2" edge="1">
          <mxGeometry relative="1" as="geometry" />
        </mxCell>
        <mxCell id="WBhutPJwO7vAAjTEZFb8-1" value="开始" style="strokeWidth=1;html=1;shape=mxgraph.flowchart.terminator;whiteSpace=wrap;rounded=1;glass=0;fontSize=15;" parent="1" vertex="1">
          <mxGeometry x="310" y="60" width="90" height="50" as="geometry" />
        </mxCell>
        <mxCell id="WBhutPJwO7vAAjTEZFb8-6" style="edgeStyle=orthogonalEdgeStyle;rounded=0;orthogonalLoop=1;jettySize=auto;html=1;exitX=0.5;exitY=1;exitDx=0;exitDy=0;" parent="1" source="WBhutPJwO7vAAjTEZFb8-2" target="WBhutPJwO7vAAjTEZFb8-3" edge="1">
          <mxGeometry relative="1" as="geometry" />
        </mxCell>
        <mxCell id="WBhutPJwO7vAAjTEZFb8-2" value="&lt;font style=&quot;font-size: 15px&quot;&gt;进入系统主页面&lt;/font&gt;" style="rounded=0;whiteSpace=wrap;html=1;" parent="1" vertex="1">
          <mxGeometry x="294" y="140" width="120" height="40" as="geometry" />
        </mxCell>
        <mxCell id="WBhutPJwO7vAAjTEZFb8-7" style="edgeStyle=orthogonalEdgeStyle;rounded=0;orthogonalLoop=1;jettySize=auto;html=1;exitX=0.5;exitY=1;exitDx=0;exitDy=0;" parent="1" source="WBhutPJwO7vAAjTEZFb8-3" target="WBhutPJwO7vAAjTEZFb8-4" edge="1">
          <mxGeometry relative="1" as="geometry" />
        </mxCell>
        <mxCell id="WBhutPJwO7vAAjTEZFb8-8" value="" style="edgeStyle=orthogonalEdgeStyle;rounded=0;orthogonalLoop=1;jettySize=auto;html=1;" parent="1" source="WBhutPJwO7vAAjTEZFb8-3" target="WBhutPJwO7vAAjTEZFb8-4" edge="1">
          <mxGeometry relative="1" as="geometry" />
        </mxCell>
        <mxCell id="WBhutPJwO7vAAjTEZFb8-3" value="&lt;font style=&quot;font-size: 15px&quot;&gt;点击&lt;br&gt;[PROGRESS MANAGEMENT]&lt;/font&gt;" style="rounded=0;whiteSpace=wrap;html=1;" parent="1" vertex="1">
          <mxGeometry x="239" y="210" width="230" height="40" as="geometry" />
        </mxCell>
        <mxCell id="WBhutPJwO7vAAjTEZFb8-11" style="edgeStyle=orthogonalEdgeStyle;rounded=0;orthogonalLoop=1;jettySize=auto;html=1;exitX=0.5;exitY=1;exitDx=0;exitDy=0;entryX=0.5;entryY=0;entryDx=0;entryDy=0;" parent="1" source="WBhutPJwO7vAAjTEZFb8-4" target="WBhutPJwO7vAAjTEZFb8-10" edge="1">
          <mxGeometry relative="1" as="geometry" />
        </mxCell>
        <mxCell id="WBhutPJwO7vAAjTEZFb8-4" value="&lt;font style=&quot;font-size: 15px&quot;&gt;点击“WAIT FOR APPROVE”&lt;/font&gt;" style="rounded=0;whiteSpace=wrap;html=1;" parent="1" vertex="1">
          <mxGeometry x="294" y="280" width="120" height="40" as="geometry" />
        </mxCell>
        <mxCell id="WBhutPJwO7vAAjTEZFb8-15" value="否" style="edgeStyle=orthogonalEdgeStyle;rounded=0;orthogonalLoop=1;jettySize=auto;html=1;exitX=0.5;exitY=1;exitDx=0;exitDy=0;" parent="1" source="WBhutPJwO7vAAjTEZFb8-10" target="WBhutPJwO7vAAjTEZFb8-14" edge="1">
          <mxGeometry relative="1" as="geometry" />
        </mxCell>
        <mxCell id="WBhutPJwO7vAAjTEZFb8-16" value="是" style="edgeStyle=orthogonalEdgeStyle;rounded=0;orthogonalLoop=1;jettySize=auto;html=1;exitX=1;exitY=0.5;exitDx=0;exitDy=0;entryX=0;entryY=0.5;entryDx=0;entryDy=0;" parent="1" source="WBhutPJwO7vAAjTEZFb8-10" target="WBhutPJwO7vAAjTEZFb8-12" edge="1">
          <mxGeometry relative="1" as="geometry" />
        </mxCell>
        <mxCell id="WBhutPJwO7vAAjTEZFb8-10" value="&lt;span style=&quot;font-size: 15px&quot;&gt;是否有待审批&lt;/span&gt;" style="rhombus;whiteSpace=wrap;html=1;aspect=fixed;" parent="1" vertex="1">
          <mxGeometry x="288" y="359.99999999999994" width="132" height="73.33" as="geometry" />
        </mxCell>
        <mxCell id="WBhutPJwO7vAAjTEZFb8-17" style="edgeStyle=orthogonalEdgeStyle;rounded=0;orthogonalLoop=1;jettySize=auto;html=1;exitX=0.5;exitY=1;exitDx=0;exitDy=0;entryX=1;entryY=0.5;entryDx=0;entryDy=0;entryPerimeter=0;" parent="1" source="WBhutPJwO7vAAjTEZFb8-12" target="WBhutPJwO7vAAjTEZFb8-14" edge="1">
          <mxGeometry relative="1" as="geometry" />
        </mxCell>
        <mxCell id="WBhutPJwO7vAAjTEZFb8-12" value="&lt;span style=&quot;font-size: 15px&quot;&gt;审批&lt;/span&gt;" style="rounded=0;whiteSpace=wrap;html=1;" parent="1" vertex="1">
          <mxGeometry x="490" y="376.66" width="70" height="40" as="geometry" />
        </mxCell>
        <mxCell id="WBhutPJwO7vAAjTEZFb8-14" value="结束" style="strokeWidth=1;html=1;shape=mxgraph.flowchart.terminator;whiteSpace=wrap;rounded=1;glass=0;fontSize=15;" parent="1" vertex="1">
          <mxGeometry x="309" y="480" width="90" height="50" as="geometry" />
        </mxCell>
      </root>
    </mxGraphModel>
  </diagram>
</mxfile>
